<?xml version="1.0" encoding="utf-8"?>
<!-- Generator: Adobe Illustrator 27.3.1, SVG Export Plug-In . SVG Version: 6.00 Build 0)  -->
<svg version="1.1" id="Layer_1" xmlns="http://www.w3.org/2000/svg" xmlns:xlink="http://www.w3.org/1999/xlink" x="0px" y="0px"
	 viewBox="0 0 350.8 348.4" style="enable-background:new 0 0 350.8 348.4;" xml:space="preserve">
<style type="text/css">
	.st0{fill:#231F20;}
	.st1{fill:#F58320;}
</style>
<path class="st0" d="M350.2,174.2c0,96.2-78,174.2-174.2,174.2c-96.2,0-174.2-78-174.2-174.2C1.7,78,79.7,0,175.9,0
	C272.2,0,350.2,78,350.2,174.2z"/>
<g>
	<g>
		<path class="st1" d="M121.7,198.5v25.1c0,14.1,3.9,25.1,11.4,32.5c7.6,7.4,20.3,12,34.5,12h8.2c13.9,0,26.7-4.6,34.3-12.1
			c7.6-7.5,11.5-18.4,11.5-32.4V79.3h-31.9l0,142c0,6.4-1.4,11.1-4.2,13.9c-2.8,2.9-7.3,4.3-13.8,4.3c-6.5,0-11.1-1.4-14-4.3
			c-2.9-2.9-4.3-7.4-4.3-14l0-22.8H121.7z"/>
	</g>
</g>
</svg>
